<svg
  width="12"
  height="7"
  viewBox="0 0 12 7"
  fill="none"
  xmlns="http://www.w3.org/2000/svg"
>
  <path
    d="M0.579879 0.672642C0.656113 0.672478 0.731621 0.686038 0.802054 0.712504C0.872487 0.738971 0.936442 0.777835 0.990226 0.826856L5.65493 5.06335L10.3196 0.826857C10.3735 0.777961 10.4374 0.739148 10.5077 0.712666C10.5781 0.686184 10.6535 0.672551 10.7297 0.672514C10.8058 0.672478 10.8813 0.686027 10.9517 0.712441C11.022 0.738856 11.086 0.777595 11.1399 0.826439C11.1938 0.875284 11.2365 0.933293 11.2657 0.997131C11.2949 1.06097 11.31 1.12939 11.31 1.1985C11.31 1.26761 11.2951 1.33606 11.266 1.39993C11.2368 1.4638 11.1942 1.52182 11.1403 1.57072L6.06527 6.17931C5.95439 6.27448 5.80756 6.32751 5.65493 6.32751C5.50229 6.32751 5.35546 6.27448 5.24458 6.17931L0.169531 1.57072C0.0885233 1.49709 0.0333809 1.40334 0.0110783 1.30129C-0.0112253 1.19923 0.000299911 1.09346 0.0442128 0.997355C0.0881267 0.901248 0.162463 0.819125 0.257803 0.761329C0.353144 0.703532 0.465218 0.672664 0.579879 0.672642Z"
    fill="#969696"
  />
</svg>