<svg width="current" height="current" viewBox="0 0 22 22" fill="none" xmlns="http://www.w3.org/2000/svg">
<path d="M18.35 7.84998H5.75V8.89998H18.35V7.84998Z" fill="black"/>
<path fill-rule="evenodd" clip-rule="evenodd" d="M5.75 17.3C5.75 18.455 6.695 19.4 7.85 19.4C9.005 19.4 9.95 18.455 9.95 17.3C9.95 16.145 9.005 15.2 7.85 15.2C6.695 15.2 5.75 16.145 5.75 17.3ZM6.80003 17.3C6.80003 16.67 7.22003 16.25 7.85003 16.25C8.48003 16.25 8.90004 16.67 8.90004 17.3C8.90004 17.93 8.48003 18.35 7.85003 18.35C7.22003 18.35 6.80003 17.93 6.80003 17.3Z" fill="black"/>
<path fill-rule="evenodd" clip-rule="evenodd" d="M14.15 17.3C14.15 18.455 15.095 19.4 16.25 19.4C17.405 19.4 18.35 18.455 18.35 17.3C18.35 16.145 17.405 15.2 16.25 15.2C15.095 15.2 14.15 16.145 14.15 17.3ZM15.2001 17.3C15.2001 16.67 15.6201 16.25 16.2501 16.25C16.8801 16.25 17.3001 16.67 17.3001 17.3C17.3001 17.93 16.8801 18.35 16.2501 18.35C15.6201 18.35 15.2001 17.93 15.2001 17.3Z" fill="black"/>
<path d="M17.195 14.15H6.90499L4.06999 4.70002H1.54999V3.65002H4.90999L7.74499 13.1H16.355L18.35 6.69502L19.4 6.90502L17.195 14.15Z" fill="black"/>
</svg>
