
<svg width="31" height="30" viewBox="0 0 31 30" fill="none" xmlns="http://www.w3.org/2000/svg">
<path d="M18.5501 17.5746C18.5501 17.638 18.4991 17.6873 18.4391 17.6873C18.3791 17.6873 18.328 17.638 18.328 17.5746C18.328 17.511 18.3788 17.4619 18.4391 17.4619C18.4993 17.4619 18.5501 17.511 18.5501 17.5746Z" fill="white" stroke="white"/>
<path d="M13.8494 17.5746C13.8494 17.638 13.7983 17.6873 13.7384 17.6873C13.6792 17.6873 13.6278 17.6383 13.6278 17.5746C13.6278 17.5107 13.6789 17.4619 13.7384 17.4619C13.7986 17.4619 13.8494 17.511 13.8494 17.5746Z" fill="white" stroke="white"/>
<path fill-rule="evenodd" clip-rule="evenodd" d="M15.7063 25.4936C15.4339 26.0175 14.7892 26.2205 14.2672 25.9474C13.7447 25.6743 13.5417 25.0279 13.8146 24.504C14.087 23.9801 14.7312 23.777 15.2537 24.0502C15.7767 24.3238 15.9787 24.9697 15.7063 25.4936Z" stroke="white"/>
<path d="M13.6936 25.0862H10.6129C9.43631 25.0862 8.38195 24.5368 7.69165 23.6812" stroke="white" stroke-linecap="round"/>
<path d="M16.1104 18.4712V19.5849" stroke="white" stroke-linecap="round"/>
<path d="M12.449 19.0957C12.8679 20.6783 14.3024 21.8466 16.0129 21.8466C17.7234 21.8466 19.1573 20.6783 19.5762 19.0957" stroke="white" stroke-linecap="round"/>
<path d="M22.3161 14.7538V28.4983L22.373 28.4599C26.7458 26.0071 29.7012 21.3189 29.7012 15.9387C29.7012 8.01935 23.2984 1.6001 15.4006 1.6001C7.50276 1.6001 1.09998 8.01935 1.09998 15.9387C1.09998 21.0235 3.70324 25.4665 7.68401 28.0123V21.6149C6.74928 21.6149 5.98544 20.8485 5.98544 19.9118C5.98544 18.9751 6.74928 18.2087 7.68401 18.2087V15.273" stroke="white" stroke-linejoin="round"/>
<path d="M14.882 7.83105L23.3406 15.7924" stroke="white" stroke-linecap="round" stroke-linejoin="round"/>
<path d="M15.4862 8.78271L6.12183 16.2685" stroke="white" stroke-linecap="round" stroke-linejoin="round"/>
</svg>