<svg width="20" height="24" viewBox="0 0 20 24" fill="none" xmlns="http://www.w3.org/2000/svg">
  <path
    d="M9.75 0.25C12.2696 0.25 14.6859 1.24729 16.4675 3.02247C18.2491 4.79765 19.25 7.20531 19.25 9.7158C19.25 13.7157 16.4292 18.0748 10.8608 22.8398C10.5511 23.1048 10.1564 23.2504 9.74818 23.25C9.33999 23.2496 8.94547 23.1034 8.63631 22.8378L8.268 22.5194C2.94605 17.8787 0.25 13.6264 0.25 9.7158C0.25 7.20531 1.25089 4.79765 3.03249 3.02247C4.81408 1.24729 7.23044 0.25 9.75 0.25ZM9.75 1.70628C7.61807 1.70628 5.57345 2.55013 4.06595 4.05221C2.55845 5.55429 1.71154 7.59154 1.71154 9.7158C1.71154 13.1157 4.1942 17.0331 9.22774 21.4214L9.59118 21.7349C9.63537 21.7728 9.69172 21.7936 9.75 21.7936C9.80828 21.7936 9.86463 21.7728 9.90882 21.7349C15.1859 17.2185 17.7885 13.1963 17.7885 9.7158C17.7885 8.66397 17.5805 7.62245 17.1766 6.65069C16.7726 5.67893 16.1805 4.79596 15.4341 4.05221C14.6876 3.30846 13.8015 2.71848 12.8262 2.31597C11.8509 1.91345 10.8056 1.70628 9.75 1.70628ZM9.75 6.07511C10.7191 6.07511 11.6484 6.45868 12.3337 7.14144C13.0189 7.8242 13.4038 8.75023 13.4038 9.7158C13.4038 10.6814 13.0189 11.6074 12.3337 12.2902C11.6484 12.9729 10.7191 13.3565 9.75 13.3565C8.78094 13.3565 7.85157 12.9729 7.16634 12.2902C6.48111 11.6074 6.09615 10.6814 6.09615 9.7158C6.09615 8.75023 6.48111 7.8242 7.16634 7.14144C7.85157 6.45868 8.78094 6.07511 9.75 6.07511ZM9.75 7.53138C9.16856 7.53138 8.61094 7.76153 8.1998 8.17119C7.78867 8.58084 7.55769 9.13646 7.55769 9.7158C7.55769 10.2951 7.78867 10.8508 8.1998 11.2604C8.61094 11.6701 9.16856 11.9002 9.75 11.9002C10.3314 11.9002 10.8891 11.6701 11.3002 11.2604C11.7113 10.8508 11.9423 10.2951 11.9423 9.7158C11.9423 9.13646 11.7113 8.58084 11.3002 8.17119C10.8891 7.76153 10.3314 7.53138 9.75 7.53138Z"
    fill="black"
  />
</svg>