<svg width="16" height="16" viewBox="0 0 24 24" fill="none" xmlns="http://www.w3.org/2000/svg">
<g clip-path="url(#clip0_191_2)">
<path fill-rule="evenodd" clip-rule="evenodd" d="M11.952 1.67995C12.0866 1.74592 12.2 1.8484 12.2792 1.97571C12.3585 2.10301 12.4003 2.25001 12.4 2.39995V21.5999C12.4001 21.7498 12.3581 21.8966 12.2789 22.0237C12.1996 22.1509 12.0863 22.2532 11.9517 22.319C11.8171 22.3849 11.6668 22.4117 11.5178 22.3963C11.3688 22.3809 11.227 22.3239 11.1088 22.2319L5.1536 17.5999H2.4C1.76348 17.5999 1.15303 17.3471 0.702944 16.897C0.252856 16.4469 0 15.8365 0 15.1999L0 8.79995C0 8.16343 0.252856 7.55298 0.702944 7.10289C1.15303 6.6528 1.76348 6.39995 2.4 6.39995H5.1536L11.1088 1.76795C11.2271 1.67602 11.3689 1.61917 11.518 1.6039C11.6671 1.58862 11.8175 1.61553 11.952 1.68155M10.8 4.03675L5.92 7.83195C5.77949 7.94099 5.60666 8.00011 5.4288 7.99995H2.4C2.18783 7.99995 1.98434 8.08423 1.83431 8.23426C1.68429 8.38429 1.6 8.58778 1.6 8.79995V15.1999C1.6 15.4121 1.68429 15.6156 1.83431 15.7656C1.98434 15.9157 2.18783 15.9999 2.4 15.9999H5.4288C5.60666 15.9998 5.77949 16.0589 5.92 16.1679L10.8 19.9647V4.03675ZM16.4448 6.15835C16.5148 6.11166 16.5932 6.07921 16.6757 6.06287C16.7582 6.04652 16.8431 6.0466 16.9256 6.0631C17.0081 6.07959 17.0865 6.11218 17.1564 6.159C17.2262 6.20581 17.2862 6.26594 17.3328 6.33595C18.4457 8.0156 19.0392 9.98586 19.0392 12.0007C19.0392 14.0156 18.4457 15.9859 17.3328 17.6655C17.2374 17.8036 17.0917 17.8987 16.9269 17.9304C16.7621 17.962 16.5915 17.9277 16.4517 17.8347C16.312 17.7418 16.2144 17.5977 16.1799 17.4335C16.1454 17.2693 16.1767 17.0981 16.2672 16.9567C17.2401 15.4873 17.7589 13.7639 17.7589 12.0015C17.7589 10.2392 17.2401 8.51582 16.2672 7.04635C16.2205 6.97639 16.1881 6.89792 16.1717 6.81542C16.1554 6.73292 16.1555 6.64801 16.1719 6.56554C16.1884 6.48307 16.221 6.40466 16.2678 6.33479C16.3147 6.26492 16.3748 6.20496 16.4448 6.15835ZM20.2848 2.28955C20.1749 2.16012 20.0181 2.07966 19.8488 2.06585C19.6796 2.05205 19.5118 2.10604 19.3824 2.21595C19.253 2.32585 19.1725 2.48267 19.1587 2.6519C19.1449 2.82114 19.1989 2.98892 19.3088 3.11835C21.4084 5.60209 22.5604 8.74926 22.5604 12.0015C22.5604 15.2538 21.4084 18.401 19.3088 20.8847C19.1989 21.0142 19.1449 21.182 19.1587 21.3512C19.1725 21.5204 19.253 21.6772 19.3824 21.7871C19.5118 21.8971 19.6796 21.951 19.8488 21.9372C20.0181 21.9234 20.1749 21.843 20.2848 21.7135C22.581 18.9984 23.841 15.5575 23.841 12.0015C23.841 8.44561 22.581 5.00469 20.2848 2.28955Z" fill="black"/>
</g>
<defs>
<clipPath id="clip0_191_2">
<rect width="24" height="24" fill="white"/>
</clipPath>
</defs>
</svg>
