<svg width="24" height="24" viewBox="0 0 24 24" fill="none" xmlns="http://www.w3.org/2000/svg">
<path fill-rule="evenodd" clip-rule="evenodd" d="M3.60004 10.8001C3.60004 14.7601 6.84004 18.0001 10.8 18.0001C14.76 18.0001 18 14.7601 18 10.8001C18 6.8401 14.76 3.6001 10.8 3.6001C6.84004 3.6001 3.60004 6.8401 3.60004 10.8001ZM4.80007 10.8001C4.80007 7.4401 7.44007 4.8001 10.8001 4.8001C14.1601 4.8001 16.8001 7.4401 16.8001 10.8001C16.8001 14.1601 14.1601 16.8001 10.8001 16.8001C7.44007 16.8001 4.80007 14.1601 4.80007 10.8001Z" fill="current"/>
<path d="M15.0187 15.8563L15.8672 15.0078L21.3826 20.5232L20.5341 21.3717L15.0187 15.8563Z" fill="current"/>
</svg>
