<svg width="15" height="18" viewBox="0 0 15 18" fill="none" xmlns="http://www.w3.org/2000/svg">
  <path
    d="M8.41176 2.81138V16.8824C8.4123 16.9755 8.39444 17.0677 8.3592 17.1538C8.32397 17.2399 8.27206 17.3182 8.20646 17.3842C8.14086 17.4502 8.06286 17.5025 7.97696 17.5383C7.89105 17.574 7.79893 17.5924 7.70589 17.5924C7.61284 17.5924 7.52072 17.574 7.43481 17.5383C7.34891 17.5025 7.27091 17.4502 7.20531 17.3842C7.13971 17.3182 7.0878 17.2399 7.05257 17.1538C7.01733 17.0677 6.99947 16.9755 7.00001 16.8824V2.81138L1.85271 8.28055C1.78922 8.34987 1.71201 8.40523 1.62597 8.44311C1.53993 8.48098 1.44696 8.50054 1.35295 8.50054C1.25895 8.50054 1.16597 8.48098 1.07993 8.44311C0.993897 8.40523 0.916681 8.34987 0.853194 8.28055C0.720353 8.13596 0.646637 7.94678 0.646637 7.75044C0.646637 7.55409 0.720353 7.36491 0.853194 7.22033L7.20612 0.469272C7.2696 0.399941 7.34682 0.344578 7.43286 0.306703C7.5189 0.268827 7.61188 0.249268 7.70589 0.249268C7.79989 0.249268 7.89287 0.268827 7.97891 0.306703C8.06495 0.344578 8.14217 0.399941 8.20566 0.469272L14.5586 7.22033C14.691 7.36483 14.7645 7.55372 14.7645 7.74973C14.7645 7.94575 14.691 8.13464 14.5586 8.27914C14.4951 8.34847 14.4179 8.40383 14.3319 8.44171C14.2458 8.47959 14.1528 8.49914 14.0588 8.49914C13.9648 8.49914 13.8718 8.47959 13.7858 8.44171C13.6998 8.40383 13.6225 8.34847 13.5591 8.27914L8.41176 2.81281V2.81138Z"
    fill="#666666"
  />
</svg>