<svg width="18" height="22" viewBox="0 0 18 22" fill="none" xmlns="http://www.w3.org/2000/svg">
  <path
    d="M17.4255 3.45098H13.4043V2.37255C13.4043 1.74331 13.1823 1.13984 12.7873 0.694904C12.3923 0.249964 11.8565 0 11.2979 0H6.70213C6.14348 0 5.60771 0.249964 5.21269 0.694904C4.81767 1.13984 4.59574 1.74331 4.59574 2.37255V3.45098H0.574468C0.42211 3.45098 0.275991 3.51915 0.168258 3.6405C0.0605241 3.76185 0 3.92643 0 4.09804C0 4.26965 0.0605241 4.43423 0.168258 4.55558C0.275991 4.67693 0.42211 4.7451 0.574468 4.7451H1.53191V20.4902C1.53191 20.8906 1.67314 21.2746 1.92452 21.5578C2.1759 21.8409 2.51684 22 2.87234 22H15.1277C15.4832 22 15.8241 21.8409 16.0755 21.5578C16.3269 21.2746 16.4681 20.8906 16.4681 20.4902V4.7451H17.4255C17.5779 4.7451 17.724 4.67693 17.8317 4.55558C17.9395 4.43423 18 4.26965 18 4.09804C18 3.92643 17.9395 3.76185 17.8317 3.6405C17.724 3.51915 17.5779 3.45098 17.4255 3.45098ZM5.74468 2.37255C5.74468 2.08653 5.84555 1.81223 6.02511 1.60998C6.20467 1.40774 6.4482 1.29412 6.70213 1.29412H11.2979C11.5518 1.29412 11.7953 1.40774 11.9749 1.60998C12.1544 1.81223 12.2553 2.08653 12.2553 2.37255V3.45098H5.74468V2.37255ZM15.3191 20.4902C15.3191 20.5474 15.299 20.6023 15.2631 20.6427C15.2272 20.6832 15.1784 20.7059 15.1277 20.7059H2.87234C2.82155 20.7059 2.77285 20.6832 2.73694 20.6427C2.70103 20.6023 2.68085 20.5474 2.68085 20.4902V4.7451H15.3191V20.4902ZM7.2766 9.27451V16.1765C7.2766 16.3481 7.21607 16.5127 7.10834 16.634C7.0006 16.7554 6.85449 16.8235 6.70213 16.8235C6.54977 16.8235 6.40365 16.7554 6.29592 16.634C6.18818 16.5127 6.12766 16.3481 6.12766 16.1765V9.27451C6.12766 9.1029 6.18818 8.93832 6.29592 8.81697C6.40365 8.69562 6.54977 8.62745 6.70213 8.62745C6.85449 8.62745 7.0006 8.69562 7.10834 8.81697C7.21607 8.93832 7.2766 9.1029 7.2766 9.27451ZM11.8723 9.27451V16.1765C11.8723 16.3481 11.8118 16.5127 11.7041 16.634C11.5963 16.7554 11.4502 16.8235 11.2979 16.8235C11.1455 16.8235 10.9994 16.7554 10.8917 16.634C10.7839 16.5127 10.7234 16.3481 10.7234 16.1765V9.27451C10.7234 9.1029 10.7839 8.93832 10.8917 8.81697C10.9994 8.69562 11.1455 8.62745 11.2979 8.62745C11.4502 8.62745 11.5963 8.69562 11.7041 8.81697C11.8118 8.93832 11.8723 9.1029 11.8723 9.27451Z"
    fill="#AAAAAA"
  />
</svg>